<?xml version="1.0" encoding="UTF-8"?>
<svg xmlns="http://www.w3.org/2000/svg" xmlns:xlink="http://www.w3.org/1999/xlink" width="586px" height="720px" viewBox="0 0 586 719" version="1.1">
<g id="surface1">
<path style=" stroke:none;fill-rule:nonzero;fill:rgb(0%,0%,0%);fill-opacity:1;" d="M 567.355469 245.105469 C 563.179688 248.34375 489.460938 289.828125 489.460938 382.078125 C 489.460938 488.777344 583.265625 526.523438 586.070312 527.457031 C 585.640625 529.757812 571.171875 579.15625 536.613281 629.484375 C 505.804688 673.773438 473.625 717.992188 424.671875 717.992188 C 375.714844 717.992188 363.117188 689.59375 306.605469 689.59375 C 251.535156 689.59375 231.953125 718.929688 187.175781 718.929688 C 142.398438 718.929688 111.152344 677.945312 75.230469 627.613281 C 33.621094 568.511719 0 476.695312 0 389.554688 C 0 249.78125 90.996094 175.652344 180.550781 175.652344 C 228.136719 175.652344 267.804688 206.855469 297.679688 206.855469 C 326.117188 206.855469 370.460938 173.78125 424.597656 173.78125 C 445.113281 173.78125 518.832031 175.652344 567.355469 245.105469 Z M 398.898438 114.609375 C 421.285156 88.078125 437.125 51.265625 437.125 14.453125 C 437.125 9.347656 436.691406 4.171875 435.757812 0 C 399.328125 1.367188 355.992188 24.230469 329.859375 54.5 C 309.339844 77.796875 290.191406 114.609375 290.191406 151.925781 C 290.191406 157.53125 291.128906 163.140625 291.558594 164.9375 C 293.863281 165.371094 297.605469 165.875 301.351562 165.875 C 334.035156 165.875 375.140625 144.015625 398.898438 114.609375 Z M 398.898438 114.609375 "/>
</g>
</svg>
