<?xml version="1.0" encoding="UTF-8"?>
<!DOCTYPE svg PUBLIC "-//W3C//DTD SVG 1.1//EN" "http://www.w3.org/Graphics/SVG/1.1/DTD/svg11.dtd">
<!-- Creator: CorelDRAW X7 -->
<svg xmlns="http://www.w3.org/2000/svg" xml:space="preserve" width="3000px" height="3000px" version="1.1" style="shape-rendering:geometricPrecision; text-rendering:geometricPrecision; image-rendering:optimizeQuality; fill-rule:evenodd; clip-rule:evenodd"
viewBox="0 0 3000 3000"
 xmlns:xlink="http://www.w3.org/1999/xlink">
 <defs>
  <style type="text/css">
   <![CDATA[
    .fil0 {fill:#03579E}
    .fil1 {fill:#A9B5D6}
   ]]>
  </style>
 </defs>
 <g id="Layer_x0020_1">
  <metadata id="CorelCorpID_0Corel-Layer"/>
  <g id="_1506310464976">
   <path class="fil0" d="M1544 1788l-50 0 50 -139 0 -67 -37 0 -131 336 70 0 29 -78 69 0 0 -52zm49 0l-49 0 0 52 68 0 28 78 75 0 -133 -336 -38 0 0 67 49 139z"/>
   <path class="fil0" d="M1960 1643c-21,-9 -44,-14 -68,-14 -23,0 -54,10 -54,46 0,59 148,34 148,147 0,73 -58,101 -126,101 -36,0 -53,-4 -86,-12l7 -61c22,13 49,21 75,21 25,0 60,-13 60,-44 0,-63 -147,-38 -147,-149 0,-75 59,-102 118,-102 28,0 54,4 80,12l-7 55z"/>
   <polygon class="fil0" points="2137,1635 2041,1635 2041,1582 2301,1582 2301,1635 2204,1635 2204,1918 2137,1918 "/>
   <path class="fil0" d="M2435 1635l21 0c8,0 17,0 25,2l0 -55 -41 0 -72 0 0 336 67 0 0 -140 21 0c11,0 19,2 25,5l0 -59c-8,1 -17,1 -25,1l-21 0 0 -90zm46 2c25,2 47,12 47,41 0,32 -22,43 -47,46l0 59c10,5 15,15 22,31l40 104 75 0 -53 -131c-7,-15 -18,-34 -37,-35l0 -2c43,-5 70,-37 70,-77 0,-77 -58,-89 -117,-91l0 55z"/>
   <path class="fil0" d="M2828 1788l-49 0 49 -139 0 -67 -36 0 -131 336 70 0 29 -78 68 0 0 -52zm50 0l-50 0 0 52 69 0 28 78 75 0 -133 -336 -39 0 0 67 50 139z"/>
   <path class="fil0" d="M1773 1227c-85,6 -246,32 -377,55 -131,22 -195,37 -250,50 -146,35 -366,98 -483,134 -103,34 -374,148 -381,145 -6,0 -14,-9 0,-19 -29,19 397,-356 1094,-451l0 -64 -1376 0 0 746c425,-171 890,-237 1376,-239l0 -179 12 -3c277,-104 602,-147 1127,-202l0 -18c-43,0 -369,4 -737,45l-5 0z"/>
   <path class="fil1" d="M2516 1172c0,0 -327,-27 -741,4 -128,9 -265,28 -392,49 -271,47 -496,105 -496,105 0,0 -16,0 -1,-9 25,-15 223,-105 497,-159 59,-12 120,-21 186,-29 9,-1 0,-11 0,-11 -64,3 -129,7 -188,16 -341,50 -588,153 -738,227 -9,4 26,-18 -182,98 0,0 -130,87 -140,96 -13,12 108,-42 192,-71 79,-28 291,-89 338,-102 36,-11 157,-36 280,-62 119,-24 230,-38 238,-40l7 0c0,0 129,-20 154,-25 39,-7 253,-32 255,-34 368,-40 737,-43 730,-43l1 -10z"/>
  </g>
 </g>
</svg>
